<svg xmlns="http://www.w3.org/2000/svg" width="16" height="16" viewBox="0 0 16 16" fill="none">
<path d="M12.5134 1.8876C11.9057 1.27434 11.1959 0.798968 10.4024 0.473705C8.01442 -0.501452 5.29442 0.057074 3.47385 1.89012C2.26619 3.10949 1.59961 4.66191 1.59961 6.26717C1.59961 7.86991 2.26577 9.42401 3.47385 10.6421L4.13835 11.3059C5.47193 12.6343 6.62195 13.7813 7.60867 15.3756L7.9925 16L8.37883 15.3756C9.36555 13.7813 10.5156 12.6343 11.8469 11.3074L12.5132 10.64C15.0284 8.10443 15.0284 4.42338 12.5134 1.8876ZM9.97867 8.55601C8.88232 9.66296 7.10518 9.66296 6.00862 8.55601C4.91247 7.45285 4.91247 5.66128 6.00862 4.55602C7.10518 3.45286 8.88232 3.45286 9.97867 4.55602C11.0725 5.66128 11.0725 7.45243 9.97867 8.55601Z" fill="#FF8D72"/>
</svg>